<mxfile host="app.diagrams.net" modified="2023-10-03T03:08:14.577Z" agent="Mozilla/5.0 (Windows NT 10.0; Win64; x64) AppleWebKit/537.36 (KHTML, like Gecko) Chrome/117.0.0.0 Safari/537.36" version="21.1.2" etag="XjV1SlN7otrbU1Elu-jm" type="github">
  <diagram name="Trang-1" id="bWHgDkMK0mTmWtsHA8lS">
    <mxGraphModel>
      <root>
        <mxCell id="0" />
        <mxCell id="1" parent="0" />
      </root>
    </mxGraphModel>
  </diagram>
</mxfile>
